<?xml version="1.0" standalone="no"?>
<!DOCTYPE svg PUBLIC "-//W3C//DTD SVG 20010904//EN"
 "http://www.w3.org/TR/2001/REC-SVG-20010904/DTD/svg10.dtd">
<svg version="1.0" xmlns="http://www.w3.org/2000/svg"
 width="1056.000000pt" height="764.000000pt" viewBox="0 0 1056.000000 764.000000"
 preserveAspectRatio="xMidYMid meet">
<metadata>
Created by potrace 1.16, written by Peter Selinger 2001-2019
</metadata>
<g transform="translate(0.000000,764.000000) scale(0.100000,-0.100000)"
fill="#000000" stroke="none">
<path d="M6260 7617 c-14 -8 -436 -271 -937 -585 -737 -462 -919 -572 -946
-572 -40 0 -144 -50 -177 -85 -34 -36 -15 -44 23 -9 51 47 63 55 114 70 l48
14 -25 -20 c-14 -11 -33 -22 -42 -26 -27 -8 -21 -22 13 -29 27 -6 29 -9 17
-21 -7 -7 -41 -25 -76 -38 -62 -24 -62 -24 -76 -4 -14 19 -21 18 -494 -91
-264 -61 -483 -111 -486 -111 -3 0 -6 23 -6 50 0 28 4 50 10 50 5 0 22 18 37
41 43 65 36 148 -30 363 -7 24 -26 51 -50 70 -32 26 -47 30 -96 31 -45 0 -65
-5 -94 -25 -34 -24 -77 -84 -77 -110 0 -7 -12 -26 -27 -44 -42 -50 -63 -105
-63 -171 0 -100 55 -176 164 -226 49 -23 51 -57 5 -152 -59 -125 -74 -192 -73
-337 0 -99 5 -142 22 -205 26 -90 83 -213 136 -293 20 -30 36 -56 36 -58 0 -2
-326 -4 -725 -4 l-725 0 -1 -982 0 -983 -39 150 c-74 290 -164 513 -227 563
-19 15 -53 46 -77 69 -56 54 -83 61 -140 33 -82 -39 -144 -126 -171 -242 -25
-108 -20 -154 59 -468 l74 -295 -31 -8 c-125 -34 -198 -90 -247 -191 -49 -100
-63 -175 -58 -306 3 -103 7 -122 34 -180 20 -41 55 -90 98 -134 111 -116 144
-218 125 -389 -6 -50 -9 -130 -7 -177 4 -71 10 -96 37 -150 18 -35 48 -83 67
-106 19 -23 34 -44 34 -46 0 -2 -26 -2 -59 0 -32 2 -98 -1 -146 -7 -75 -10
-90 -10 -104 3 -60 55 -200 73 -291 37 -43 -16 -47 -16 -99 2 -124 42 -323 28
-405 -30 -65 -46 -81 -76 -81 -146 0 -50 6 -72 28 -109 34 -58 90 -105 142
-119 22 -6 65 -20 95 -30 30 -10 70 -20 88 -21 19 -1 42 -12 55 -26 44 -47
163 -100 307 -137 90 -23 210 2 287 61 l33 25 39 -21 c65 -33 150 -51 238 -52
99 0 163 14 263 58 41 18 77 29 80 24 3 -5 85 -11 182 -12 l177 -3 -190 -174
c-104 -96 -189 -180 -189 -186 0 -6 -11 -22 -25 -35 -14 -13 -25 -30 -25 -38
0 -19 122 -201 159 -236 49 -47 55 -25 26 89 -14 55 -25 100 -25 101 0 2 97
73 215 160 l216 158 45 84 c25 46 47 82 48 80 2 -2 -1 -145 -6 -318 -7 -244
-6 -328 4 -372 l12 -58 191 0 c128 0 185 4 175 10 -8 6 -58 24 -110 41 -52 17
-96 32 -98 33 -1 2 31 150 73 329 41 179 75 328 75 331 0 3 149 6 330 6 l330
0 0 -65 0 -65 -205 0 -205 0 0 -310 c0 -200 4 -310 10 -310 6 0 10 107 10 300
l0 300 235 0 c228 0 235 -1 235 -20 0 -19 -7 -20 -210 -20 l-210 0 0 -280 0
-280 1230 0 1229 0 3 97 3 98 183 3 182 2 0 45 c0 43 1 45 30 45 l30 0 0 230
0 230 847 -2 848 -3 84 -370 c46 -203 85 -372 87 -374 19 -21 4 63 -75 401
l-92 393 73 392 c48 259 77 393 84 393 19 0 103 -88 123 -129 10 -20 29 -67
41 -106 14 -42 34 -80 51 -96 42 -39 47 -88 16 -152 -17 -35 -32 -97 -46 -189
-20 -131 -21 -152 -10 -520 6 -211 13 -385 16 -388 3 -3 3 137 -1 310 l-7 315
47 -85 47 -86 210 -154 c115 -85 214 -158 219 -161 4 -3 -1 -32 -12 -64 -11
-32 -20 -62 -20 -67 0 -4 19 -8 43 -8 l42 0 58 91 c59 90 59 91 40 112 -11 12
-26 34 -35 48 -9 14 -111 113 -227 220 l-211 194 0 42 0 43 179 0 c99 0 182 4
185 8 3 5 30 15 60 22 54 13 57 12 123 -18 96 -44 175 -62 268 -62 94 1 149
12 227 47 l56 25 44 -30 c102 -69 236 -81 353 -30 33 14 81 33 107 42 25 10
65 31 89 49 57 43 57 43 114 55 223 47 325 134 325 278 0 64 -15 97 -63 135
-79 61 -293 83 -412 41 -60 -20 -61 -20 -115 -2 -95 33 -195 21 -274 -32 -32
-22 -43 -24 -74 -17 -20 5 -85 9 -145 9 l-107 0 42 53 c56 68 96 160 105 237
3 34 0 113 -7 176 -22 193 2 275 121 402 37 40 79 96 93 125 83 170 49 441
-74 589 -36 44 -140 98 -187 98 -18 0 -33 2 -33 5 0 15 84 364 106 440 49 169
49 302 0 410 -44 98 -132 175 -197 175 -32 0 -47 -8 -91 -50 -108 -100 -118
-113 -147 -173 -74 -155 -183 -534 -211 -732 -9 -61 -19 -96 -32 -108 -10 -10
-19 -28 -19 -40 -1 -12 -12 46 -24 128 -24 149 -24 157 -24 1118 l-1 967 -865
0 -865 0 -65 47 c-36 26 -65 50 -65 54 0 4 11 10 24 13 30 7 86 70 86 97 0 27
-31 37 -44 14 -24 -41 -53 -65 -83 -71 -27 -5 -37 -1 -63 24 -42 43 -39 71 16
133 47 54 74 103 74 138 0 12 13 26 37 38 112 54 110 204 -4 258 l-42 20 -1
812 c0 806 0 813 -21 850 -29 53 -48 72 -91 94 -44 22 -131 25 -168 6z m180
-31 c43 -29 80 -96 80 -147 0 -42 -29 -107 -61 -136 -72 -66 -189 -57 -256 20
-30 34 -37 54 -46 132 -3 20 -4 15 -5 -15 -1 -25 7 -63 17 -85 61 -132 230
-154 329 -41 l32 37 0 -751 0 -750 -24 0 c-51 0 -116 -79 -116 -142 0 -63 29
-98 118 -145 12 -6 -26 -84 -58 -118 -21 -22 -43 -50 -49 -62 -18 -36 -13 -97
10 -127 25 -32 24 -33 -71 -111 l-68 -55 -738 3 -739 3 -114 33 c-113 32 -115
33 -202 112 -121 108 -278 223 -333 244 -100 38 -252 5 -374 -81 -36 -26 -49
-31 -58 -21 -46 50 -255 309 -252 312 2 2 21 0 43 -5 177 -41 362 65 431 247
10 27 24 54 31 62 8 7 22 30 32 50 11 20 64 78 120 129 76 71 115 99 163 118
35 14 71 33 80 41 19 17 14 40 -10 45 -11 3 3 17 43 42 151 98 1752 1099 1764
1104 10 4 12 -1 7 -19 -5 -19 -4 -18 10 6 26 47 46 66 89 87 52 24 124 18 175
-16z m-3186 -1133 c28 -107 17 -172 -38 -222 -21 -20 -26 -33 -26 -73 0 -46
-2 -50 -35 -64 -19 -7 -50 -14 -70 -14 -32 0 -38 4 -51 36 -14 35 -14 36 16
70 36 42 37 57 5 95 -31 38 -22 69 25 85 45 15 96 73 110 126 21 77 20 75 35
48 7 -14 20 -53 29 -87z m841 -268 c-49 -46 -93 -85 -96 -85 -4 0 -6 17 -5 38
1 36 3 38 91 84 50 26 92 47 95 47 3 0 -35 -38 -85 -84z m-117 -70 c-3 -27 -1
-46 5 -48 7 -2 2 -17 -12 -35 -18 -26 -26 -30 -41 -22 -10 6 -21 14 -24 18 -5
8 63 132 72 132 3 0 2 -20 0 -45z m-61 -17 c-14 -24 -27 -55 -31 -69 -7 -30
-69 -83 -133 -111 -53 -23 -161 -35 -187 -21 -15 8 -5 18 60 63 90 63 306 191
312 185 2 -2 -7 -23 -21 -47z m247 -643 c52 -25 219 -152 315 -241 l54 -50
-46 -27 c-25 -15 -50 -27 -55 -27 -5 0 -75 31 -155 69 l-145 69 -208 -94
c-137 -61 -212 -90 -219 -84 -7 6 -20 26 -31 45 -18 34 -42 50 -31 21 22 -57
303 -481 422 -637 l145 -190 -19 -28 c-43 -60 -31 -65 -278 115 -212 155 -245
184 -470 408 -134 132 -243 244 -243 248 0 5 18 8 41 8 140 0 329 103 421 230
24 32 47 58 53 56 5 -1 31 14 57 35 131 103 273 130 392 74z m126 -304 l125
-60 -295 0 c-231 0 -290 3 -270 12 218 100 277 124 295 117 11 -5 76 -35 145
-69z m2181 47 c19 -6 63 -32 99 -57 l65 -46 -88 -3 c-48 -1 -123 -1 -167 0
l-78 3 66 57 c37 31 67 57 68 57 1 1 16 -4 35 -11z m-3313 -142 c15 -8 72 -60
127 -115 l100 -101 -853 0 -852 0 0 115 0 115 725 0 c610 0 730 -2 753 -14z
m1307 4 c8 -13 172 -13 288 0 58 7 350 10 790 8 l699 -3 -134 -112 -133 -112
-1061 -1 c-998 0 -1062 1 -1076 18 -8 9 -38 55 -67 102 l-51 84 22 13 c29 16
713 19 723 3z m2363 -102 l157 -113 -248 -3 c-137 -1 -357 -1 -490 0 l-241 3
134 113 134 112 199 0 199 0 156 -112z m1562 -3 l0 -115 -683 0 -683 0 -150
106 c-82 58 -153 110 -158 115 -6 5 315 9 832 9 l842 0 0 -115z m-4825 -293
c66 -65 134 -128 150 -140 l30 -21 -602 -1 -603 0 -32 29 c-27 24 -32 36 -36
89 -6 77 2 108 35 138 l26 24 455 0 456 0 121 -118z m2298 85 c-21 -18 -95
-81 -165 -140 l-127 -107 -743 0 -743 1 -80 106 c-76 100 -115 158 -115 168 0
3 452 5 1005 5 l1005 0 -37 -33z m1407 -104 l192 -138 -466 -3 c-256 -1 -675
-1 -930 0 l-464 3 161 137 162 137 576 0 576 1 193 -137z m347 113 c24 -21 28
-32 31 -95 5 -84 -9 -126 -49 -146 -65 -34 -86 -25 -296 125 l-196 140 241 0
c239 0 241 0 269 -24z m498 -46 l0 -25 -153 -3 c-129 -2 -153 0 -158 13 -4 8
-4 22 0 30 5 13 29 15 158 13 l153 -3 0 -25z m0 -90 l0 -25 -135 -3 c-74 -1
-145 0 -157 3 -22 5 -31 34 -16 49 4 3 75 5 157 4 l151 -3 0 -25z m0 -80 l0
-25 -155 0 c-143 0 -155 1 -158 19 -2 10 2 23 10 27 7 5 78 8 158 6 l145 -2 0
-25z m-4118 -225 c78 -58 146 -105 151 -105 4 0 21 -13 37 -30 16 -16 34 -30
41 -30 24 0 204 204 204 233 0 16 -40 5 -117 -32 l-81 -40 -41 52 -40 52 329
3 c182 1 478 1 660 0 l329 -3 -384 -323 c-248 -208 -387 -332 -391 -347 -6
-26 -10 -27 -134 -45 -126 -18 -119 -14 -113 -60 l6 -40 -1114 -3 -1114 -2
1116 -3 1115 -2 157 -1062 c86 -584 158 -1063 160 -1064 1 -2 426 59 942 135
517 76 945 134 950 130 22 -16 92 -20 165 -10 113 16 540 80 578 86 l32 6 -17
-35 c-24 -52 -8 -81 65 -112 122 -54 142 -64 142 -77 0 -8 -32 -182 -71 -388
-38 -206 -70 -389 -71 -407 l0 -32 -841 2 -842 3 -3 98 -3 97 -1234 0 -1234 0
-3 -37 c-3 -36 -5 -38 -40 -41 l-37 -3 -3 -57 -3 -57 -322 -3 -323 -2 0 21 c0
12 7 48 15 81 16 59 11 113 -20 256 l-5 22 249 0 249 0 30 25 c16 13 35 38 42
54 7 17 21 33 32 37 26 8 58 62 58 97 0 15 -7 41 -15 57 -30 58 -43 60 -389
60 l-316 0 -5 23 c-18 77 -44 231 -40 237 3 4 41 22 85 40 125 50 151 82 119
142 -6 11 -9 21 -7 24 2 2 137 -17 299 -41 281 -43 469 -57 469 -36 0 13 -23
20 -86 27 -45 6 -54 10 -49 23 4 9 7 21 8 26 1 6 -33 12 -78 15 -64 4 -111 17
-240 64 -170 62 -206 80 -244 120 l-24 26 696 0 697 0 0 65 0 65 -766 0 -765
0 -46 44 -47 43 44 42 43 41 864 0 863 0 0 170 0 170 -918 0 -918 0 -12 60
-13 60 -99 0 c-150 0 -231 -34 -265 -110 -15 -33 -16 -59 -11 -187 4 -91 3
-154 -3 -162 -8 -12 -20 -13 -69 -4 -79 15 -165 58 -218 109 -72 70 -136 226
-119 292 4 15 6 372 5 794 l-1 768 1088 0 1088 0 142 -105z m3740 -6 c85 -61
151 -115 146 -119 -4 -3 -710 -109 -1568 -234 -858 -125 -1571 -230 -1583
-233 -66 -15 3 52 376 366 l393 331 1040 0 1041 0 155 -111z m653 -446 c0
-306 -2 -554 -4 -552 -2 2 -14 72 -25 154 -12 83 -24 161 -27 175 -5 24 -5 24
15 6 28 -26 27 -4 -2 31 -20 24 -28 64 -61 288 -21 143 -40 263 -44 267 -4 3
-79 -5 -166 -18 l-160 -24 -30 28 c-17 16 -80 64 -141 107 -60 42 -114 81
-119 86 -6 5 154 9 377 9 l387 0 0 -557z m-248 144 c9 -51 15 -93 13 -95 -2
-2 -36 35 -75 83 -40 47 -70 88 -67 91 7 7 101 21 107 16 3 -2 12 -45 22 -95z
m-70 -29 c46 -57 88 -108 91 -115 7 -12 237 -1236 233 -1240 -2 -2 -797 563
-948 674 l-47 34 -153 -207 c-580 -781 -781 -1051 -793 -1063 -11 -11 -78 34
-429 288 -229 166 -422 304 -428 306 -8 2 -167 -200 -387 -491 -206 -272 -375
-493 -377 -492 -1 2 -57 367 -124 812 l-122 809 38 144 c30 117 42 147 58 154
12 5 248 42 526 83 1479 220 2487 370 2585 386 195 31 179 36 277 -82z m956
-47 c85 -63 142 -186 142 -313 1 -58 -15 -136 -72 -370 -72 -296 -73 -298 -99
-298 l-26 0 64 213 c71 234 83 317 64 419 -24 121 -125 277 -201 308 l-31 13
27 28 c37 38 78 38 132 0z m-7758 -1 c11 -6 24 -19 30 -30 9 -16 5 -21 -25
-36 -49 -23 -119 -104 -155 -179 -71 -149 -68 -256 19 -542 33 -111 61 -205
61 -208 0 -4 -10 -5 -22 -3 -19 3 -26 23 -69 203 -26 110 -59 240 -73 290 -31
107 -33 193 -7 288 41 149 163 259 241 217z m3377 -352 c-2 -7 -17 -61 -32
-121 -16 -59 -30 -106 -32 -104 -5 6 -33 177 -33 204 0 18 7 22 38 26 20 2 43
4 51 5 7 1 11 -4 8 -10z m-2986 -633 c10 7 11 -14 3 -67 -5 -29 -11 -38 -26
-38 -27 0 -32 22 -18 97 14 84 24 100 28 45 2 -23 7 -40 13 -37z m7486 -31
c43 -17 119 -88 148 -138 70 -122 90 -314 47 -454 -19 -60 -33 -83 -81 -135
l-59 -62 25 75 c93 278 -29 607 -239 645 -40 8 -44 17 -29 59 7 18 19 26 43
29 45 5 106 -3 145 -19z m-7939 -17 c6 -6 13 -24 17 -38 6 -23 2 -27 -37 -38
-67 -20 -112 -47 -146 -85 -127 -145 -158 -389 -76 -611 13 -35 -72 54 -100
104 -54 100 -68 224 -40 359 34 164 119 278 234 313 41 12 137 10 148 -4z
m7291 -134 c1 -46 -2 -53 -18 -53 -21 0 -26 10 -36 78 -6 36 -4 41 9 36 13 -5
16 2 17 32 l1 39 13 -40 c8 -22 14 -64 14 -92z m-6020 -36 c13 -75 14 -104 3
-111 -14 -9 -86 39 -102 67 -15 28 -14 29 29 68 24 21 47 39 51 39 4 0 13 -28
19 -63z m5229 -104 c23 -18 32 -32 32 -54 0 -24 -8 -35 -47 -59 -26 -17 -51
-30 -56 -30 -11 0 -4 132 8 162 8 19 13 18 63 -19z m-5949 -296 c21 -23 23
-31 13 -45 -31 -44 -44 -78 -49 -127 -11 -106 30 -166 172 -250 132 -77 166
-126 134 -188 -7 -12 -38 -50 -70 -84 -46 -48 -59 -68 -59 -93 0 -41 22 -82
63 -117 30 -25 35 -35 41 -93 3 -37 17 -87 31 -115 21 -44 25 -71 34 -230 8
-158 7 -182 -7 -197 -13 -16 -36 -18 -199 -18 l-183 0 0 832 0 833 26 -40 c15
-22 38 -53 53 -68z m7358 -354 c-17 -50 -19 -76 -14 -184 l5 -126 -54 -23
c-30 -12 -57 -20 -60 -17 -3 3 -8 39 -11 81 -9 117 15 192 84 267 31 32 58 59
63 59 4 0 -2 -26 -13 -57z m-7972 -62 c38 -57 59 -154 51 -240 -3 -41 -8 -76
-10 -78 -2 -2 -28 7 -57 20 l-54 23 0 145 c-1 111 -5 154 -18 187 l-17 43 41
-32 c22 -18 51 -48 64 -68z m2165 19 c0 -5 -9 -14 -20 -20 -29 -15 -15 -30 28
-31 20 -1 48 -5 62 -10 16 -6 -3 -7 -57 -4 -45 3 -89 8 -98 11 -18 7 -20 50
-2 57 22 9 87 7 87 -3z m5080 -590 l0 -570 -172 0 -173 0 3 122 c3 105 7 131
28 178 14 30 30 86 37 125 10 62 16 75 54 112 72 71 65 141 -21 207 -19 14
-44 45 -55 70 -21 41 -21 47 -7 80 11 26 32 46 76 74 148 89 182 114 198 142
9 16 20 30 25 30 4 0 7 -256 7 -570z m-1496 464 c9 -3 16 -17 16 -29 0 -27
-14 -31 -125 -40 -72 -5 -61 6 19 20 l38 6 -23 25 -22 24 40 0 c23 0 48 -3 57
-6z m-4350 -484 l73 -392 -97 -417 -97 -416 -74 0 c-43 0 -74 4 -74 10 1 6 5
192 9 415 9 449 0 576 -50 691 -34 80 -32 118 11 169 21 25 42 68 54 108 11
37 33 87 49 112 29 45 110 125 118 117 3 -2 38 -181 78 -397z m6572 258 c-4
-34 -16 -83 -26 -110 -37 -97 -117 -197 -170 -213 -24 -8 -24 -7 -7 16 10 13
32 53 49 89 27 54 33 79 36 152 l4 86 47 20 c73 32 75 31 67 -40z m-7979 14
l43 -17 0 -71 c0 -88 20 -157 64 -223 32 -48 33 -51 14 -51 -31 0 -103 84
-144 165 -32 66 -54 147 -54 202 0 27 -2 27 77 -5z m940 -228 c31 -9 71 -14
89 -11 l33 6 -6 -44 c-4 -36 0 -55 20 -97 18 -36 33 -96 47 -185 31 -201 30
-210 -38 -332 l-57 -105 -210 -154 -210 -154 -42 48 c-24 27 -43 51 -42 54 0
3 97 93 214 200 l214 195 0 55 c0 30 -4 118 -9 195 -7 117 -12 149 -33 195
-25 55 -46 150 -32 150 4 0 32 -7 62 -16z m7942 -70 c50 -17 142 -87 130 -99
-3 -2 -38 -9 -78 -15 -72 -10 -75 -10 -109 16 -40 31 -108 59 -169 69 -47 7
-52 15 -26 41 15 14 31 16 108 11 49 -3 114 -14 144 -23z m-430 -4 c44 -20 44
-20 97 0 30 11 54 16 54 12 -1 -16 -29 -42 -46 -42 -10 0 -46 -12 -79 -25 -57
-23 -62 -24 -100 -10 -22 9 -67 19 -100 23 l-60 7 27 28 c24 24 34 27 95 27
46 0 82 -7 112 -20z m-9172 -16 c20 -27 16 -34 -19 -34 -50 0 -98 -16 -163
-55 -57 -35 -61 -36 -127 -29 -38 4 -71 10 -73 14 -10 16 46 68 95 89 98 42
261 50 287 15z m384 -16 l18 -23 -72 -12 c-39 -7 -84 -18 -99 -24 -23 -9 -36
-8 -76 9 -26 11 -62 23 -80 27 -18 4 -37 15 -42 26 -13 23 -7 24 50 3 43 -15
48 -15 105 5 80 29 170 24 196 -11z m8539 7 c-7 -8 -20 -15 -29 -15 -13 1 -13
3 3 15 26 19 42 19 26 0z m-8464 -42 c-7 -7 -46 16 -46 28 0 5 11 2 25 -7 14
-9 24 -19 21 -21z m8360 19 c10 -5 -4 -14 -39 -26 -50 -17 -56 -17 -111 -1
-31 9 -80 15 -107 13 -64 -4 -59 15 7 24 58 7 231 1 250 -10z m-1139 -48 c-3
-31 -17 -79 -31 -108 -22 -45 -25 -69 -31 -206 -3 -85 -8 -169 -11 -187 -4
-30 5 -40 214 -235 l219 -203 -40 -48 c-21 -26 -43 -47 -48 -47 -5 0 -101 69
-215 153 l-206 152 -54 98 c-51 93 -54 101 -54 170 0 102 34 295 59 342 14 26
21 58 21 92 l0 53 48 1 c26 0 63 7 82 14 52 20 53 19 47 -41z m-4947 40 c0
-17 -24 -46 -50 -59 -23 -12 -74 -15 -268 -15 l-240 0 -6 23 c-16 61 -33 57
279 57 157 0 285 -3 285 -6z m-1910 -20 c8 -8 -7 -11 -57 -11 -37 0 -87 -7
-111 -16 -42 -14 -46 -14 -95 8 -51 23 -52 23 -22 28 56 9 274 2 285 -9z
m7666 7 c-8 -12 -46 -21 -46 -11 0 9 18 18 38 19 7 1 11 -3 8 -8z m-7596 -26
c16 -19 0 -19 -26 0 -16 12 -16 14 -3 15 9 0 22 -7 29 -15z m8847 -76 c-8 -69
-48 -134 -105 -170 -68 -43 -75 -38 -41 27 32 63 38 126 13 159 -14 19 -13 20
18 26 18 4 53 7 77 8 l44 1 -6 -51z m-10049 25 c55 -7 62 -16 36 -45 -14 -15
-14 -25 -5 -71 7 -29 21 -68 31 -86 29 -48 25 -55 -19 -33 -75 39 -131 128
-131 210 0 34 1 35 88 25z m3222 -400 l0 -125 -32 3 -33 3 -3 109 c-1 61 0
116 2 123 3 7 19 13 36 13 l30 0 0 -126z m6419 109 c3 -2 -7 -16 -22 -30 -21
-21 -29 -25 -39 -15 -9 9 -9 17 0 37 10 21 17 25 35 19 12 -3 24 -8 26 -11z
m-9260 -69 c-10 -13 -16 -11 -41 13 l-29 28 28 12 c25 10 29 9 41 -14 11 -19
11 -27 1 -39z m9185 7 c3 -4 -6 -13 -20 -20 -35 -16 -40 -14 -19 9 20 22 31
25 39 11z m-9129 -31 c11 -13 14 -20 6 -20 -18 0 -51 19 -51 30 0 17 26 11 45
-10z m5183 -507 l-3 -38 -175 0 -175 0 -3 38 -3 37 181 0 181 0 -3 -37z"/>
<path d="M2566 4698 c-20 -29 -20 -48 0 -77 14 -20 23 -22 58 -18 33 5 45 2
63 -15 13 -12 26 -18 30 -14 5 4 -5 18 -21 31 -21 17 -27 28 -21 44 4 14 1 31
-9 46 -22 33 -78 35 -100 3z m76 -5 c24 -21 23 -45 -2 -68 -30 -27 -70 -7 -70
34 0 45 39 64 72 34z"/>
<path d="M2453 4269 c-156 -28 -246 -178 -201 -333 16 -55 109 -148 164 -164
204 -60 384 122 323 327 -14 48 -77 124 -121 147 -41 21 -115 31 -165 23z"/>
<path d="M2940 4115 l0 -65 40 0 c22 0 40 -4 40 -10 0 -7 202 -10 585 -10
l585 0 0 55 c0 52 -1 55 -25 55 -18 0 -25 5 -25 20 0 20 -7 20 -600 20 l-600
0 0 -65z m1190 35 c0 -7 -192 -10 -555 -10 l-555 0 0 -35 c0 -32 -2 -35 -30
-35 -29 0 -30 2 -30 45 l0 45 585 0 c383 0 585 -3 585 -10z"/>
<path d="M2940 3945 l0 -65 40 0 c22 0 40 -4 40 -10 0 -7 142 -10 405 -10
l405 0 0 50 c0 47 -2 50 -25 50 -20 0 -25 5 -25 25 l0 25 -420 0 -420 0 0 -65z
m820 30 c0 -13 -48 -15 -370 -15 l-370 0 0 -30 c0 -27 -3 -30 -30 -30 -29 0
-30 2 -30 45 l0 45 400 0 c349 0 400 -2 400 -15z"/>
<path d="M2263 3353 c-22 -8 -15 -21 66 -107 l79 -84 74 85 c40 46 74 88 76
92 1 5 -11 11 -29 15 -37 7 -248 7 -266 -1z"/>
<path d="M3400 3350 c-16 -10 -15 -11 91 -126 l57 -60 77 89 c60 69 75 91 64
98 -19 12 -270 11 -289 -1z"/>
<path d="M2820 3341 c0 -11 149 -176 157 -175 13 2 151 169 147 176 -7 11
-304 10 -304 -1z"/>
<path d="M2208 3313 c-9 -11 -14 -55 -17 -135 -3 -127 2 -174 22 -202 12 -17
21 -10 95 75 l81 92 -31 36 c-113 131 -136 151 -150 134z"/>
<path d="M2504 3237 l-81 -92 80 -88 c74 -80 82 -87 94 -71 18 24 18 290 0
321 -12 21 -16 18 -93 -70z"/>
<path d="M3348 3313 c-9 -11 -14 -58 -16 -154 -3 -111 0 -143 13 -168 9 -18
19 -29 24 -27 4 3 42 45 83 94 l76 88 -83 91 c-74 81 -85 90 -97 76z"/>
<path d="M2773 3308 c-4 -7 -10 -72 -11 -144 -3 -105 -1 -138 13 -170 l17 -39
64 70 c36 39 73 81 84 95 l18 25 -80 88 c-44 48 -84 87 -88 87 -5 0 -12 -6
-17 -12z"/>
<path d="M3076 3235 c-42 -47 -76 -90 -74 -95 2 -5 36 -46 77 -91 97 -106 101
-101 101 96 0 199 -4 202 -104 90z"/>
<path d="M3639 3232 l-76 -87 82 -89 c77 -84 83 -88 94 -68 7 12 11 75 11 157
0 124 -8 175 -28 175 -4 0 -41 -40 -83 -88z"/>
<path d="M2328 3040 c-43 -48 -75 -90 -71 -94 10 -10 291 -7 298 4 5 8 -64 91
-134 161 -15 15 -22 9 -93 -71z"/>
<path d="M3468 3040 c-43 -48 -75 -90 -71 -94 10 -10 291 -7 298 4 5 8 -64 91
-134 161 -15 15 -22 9 -93 -71z"/>
<path d="M2901 3040 c-39 -45 -71 -85 -71 -90 0 -6 62 -10 150 -10 89 0 150 4
150 10 0 10 -141 167 -151 169 -3 1 -38 -35 -78 -79z"/>
<path d="M3454 1460 c-12 -4 -31 -21 -43 -35 -11 -15 -35 -35 -53 -44 -67 -34
-90 -109 -54 -179 32 -61 36 -62 453 -62 357 0 380 1 410 20 17 10 37 29 44
42 6 13 29 39 51 58 33 29 41 43 44 80 6 53 -21 105 -62 120 -31 12 -760 12
-790 0z m-64 -115 c0 -38 25 -79 55 -93 19 -9 130 -12 395 -12 204 0 370 -4
370 -9 0 -21 -44 -61 -78 -71 -48 -13 -695 -13 -741 0 -71 20 -107 87 -81 151
23 55 80 79 80 34z"/>
<path d="M6146 3565 c-67 -27 -116 -70 -154 -134 -37 -63 -44 -187 -13 -255
52 -119 150 -186 271 -186 36 0 87 7 113 16 60 20 131 84 165 148 37 70 38
187 3 259 -72 148 -236 213 -385 152z"/>
</g>
</svg>
